Coordinates
version=1
nRows=7
nColumns=63
inDegrees=yes

Units are S.I. units (second, meters, Newtons, ...)
If the header above contains a line with 'inDegrees', this indicates whether rotational values are in degrees (yes) or radians (no).

endheader
time	pelvis_tilt	pelvis_list	pelvis_rotation	pelvis_tx	pelvis_ty	pelvis_tz	hip_flexion_r	hip_adduction_r	hip_rotation_r	knee_angle_r	knee_angle_r_beta	ankle_angle_r	subtalar_angle_r	mtp_angle_r	hip_flexion_l	hip_adduction_l	hip_rotation_l	knee_angle_l	knee_angle_l_beta	ankle_angle_l	subtalar_angle_l	mtp_angle_l	L5_S1_Flex_Ext	L5_S1_Lat_Bending	L5_S1_axial_rotation	L4_L5_Flex_Ext	L4_L5_Lat_Bending	L4_L5_axial_rotation	L3_L4_Flex_Ext	L3_L4_Lat_Bending	L3_L4_axial_rotation	L2_L3_Flex_Ext	L2_L3_Lat_Bending	L2_L3_axial_rotation	L1_L2_Flex_Ext	L1_L2_Lat_Bending	L1_L2_axial_rotation	L1_T12_Flex_Ext	L1_T12_Lat_Bending	L1_T12_axial_rotation	Abs_r3	Abs_r2	Abs_r1	Abs_t1	Abs_t2	neck_flexion	neck_bending	neck_rotation	arm_flex_r	arm_add_r	arm_rot_r	elbow_flex_r	pro_sup_r	wrist_flex_r	wrist_dev_r	arm_flex_l	arm_add_l	arm_rot_l	elbow_flex_l	pro_sup_l	wrist_flex_l	wrist_dev_l
     13.63333333	      5.99337280	      2.34806456	   -176.04148087	      0.79956499	      0.89595576	      0.75384190	     23.63063465	     -1.57592394	     -3.09869465	     68.18150075	      1.18999168	      7.80850609	    -16.12592215	      0.00000000	     17.07496066	     -2.21262644	    -14.21423605	     21.67301294	      0.37826543	     20.26690054	      2.74657891	      0.00000000	     -0.00477011	      0.09705230	     -0.02705083	     -0.00885857	      0.12907956	     -0.02874150	     -0.00783682	      0.23597297	     -0.02874150	     -0.00545176	      0.23597297	     -0.02366947	     -0.00442953	      0.19790906	     -0.02197880	     -0.00272564	      0.15033402	     -0.02028812	     -0.03407243	      1.09787507	     -0.15044859	      0.00000000	      0.00000000	     -0.00000000	      0.00000000	      0.00000000	     -5.47982961	    -10.43396680	      9.52269343	     29.65188605	     44.80149984	      0.00000000	      5.00000014	      6.79512397	    -12.05461653	    104.89402219	      1.82564047	     23.66791478	      0.00000000	      5.00000014
     13.66666667	      5.85310473	      2.69494274	   -175.53362310	      0.76396775	      0.89783852	      0.75829994	     28.95882998	     -1.56167624	     -3.10042245	     66.04864646	      1.15276635	     10.45834828	    -15.60628563	      0.00000000	     13.38141263	     -2.84121793	    -17.94132325	     19.64638184	      0.34289405	     22.56290108	      8.92573799	      0.00000000	     -0.00481741	      0.15806799	     -0.27286903	     -0.00894640	      0.21023043	     -0.28992334	     -0.00791452	      0.38432652	     -0.28992334	     -0.00550581	      0.38432652	     -0.23876040	     -0.00447344	      0.32233225	     -0.22170608	     -0.00275267	      0.24484732	     -0.20465177	     -0.03441025	      1.78809674	     -1.51761567	      0.00000000	      0.00000000	     -0.00000000	      0.00000000	      0.00000000	     -7.21822897	    -10.49495044	      9.97685083	     27.60534491	     45.35657269	      0.00000000	      5.00000014	      9.99998066	    -12.27090394	    118.21329780	      1.25065871	     18.15474046	      0.00000000	      5.00000014
     13.70000000	      5.89470990	      3.12177220	   -174.84468465	      0.72965820	      0.89825306	      0.76346266	     33.45991309	     -2.07556906	     -4.11176529	     60.93915912	      1.06358897	     11.79066717	    -14.74172024	      0.00000000	     10.22205521	     -3.05280287	    -19.20492882	     17.78960283	      0.31048714	     24.26746883	     11.84021578	      0.00000000	     -0.00413544	      0.24296235	     -0.52466527	     -0.00767993	      0.32313992	     -0.55745685	     -0.00679412	      0.59073866	     -0.55745685	     -0.00472640	      0.59073866	     -0.45908211	     -0.00384017	      0.49544882	     -0.42629053	     -0.00236299	      0.37634868	     -0.39349895	     -0.02953906	      2.74843868	     -2.91803083	      0.00000000	      0.00000000	     -0.00000000	      0.00000000	      0.00000000	     -9.01353507	    -10.73803483	      9.11905843	     25.97316415	     45.45681475	      0.00000000	      5.00000014	     13.30437986	    -12.28848106	    129.68332603	      0.81978143	     13.24768469	      0.00000000	      5.00000014
     13.73333333	      6.03738027	      3.68028624	   -174.19647595	      0.69565931	      0.89740650	      0.76870267	     36.52366666	     -2.82400278	     -6.36996747	     53.09408406	      0.92666658	     11.45518532	    -13.31989129	      0.00000000	      7.29228347	     -3.28572267	    -19.80689941	     16.08749871	      0.28077982	     25.83732239	     13.84703156	      0.00000000	     -0.00297908	      0.34832158	     -0.72534477	     -0.00553244	      0.46326771	     -0.77067882	     -0.00489432	      0.84690910	     -0.77067882	     -0.00340479	      0.84690910	     -0.63467668	     -0.00276637	      0.71029737	     -0.58934263	     -0.00170224	      0.53955013	     -0.54400858	     -0.02127924	      3.94028341	     -4.03415003	      0.00000000	      0.00000000	     -0.00000000	      0.00000000	      0.00000000	    -10.94097101	    -11.27902930	      7.86883121	     24.90926074	     45.41858982	      0.00000000	      5.00000014	     16.54771477	    -12.11068983	    136.41944137	      0.63046183	      8.96391953	      0.00000000	      5.00000014
     13.76666667	      6.17583472	      4.30418398	   -173.63687084	      0.66083400	      0.89534981	      0.77337220	     37.82949195	     -3.27165570	     -9.62679918	     43.21910713	      0.75431572	      9.50154739	    -11.46955173	      0.00000000	      4.34751698	     -3.48311066	    -19.49547996	     14.45368749	      0.25226444	     27.16796622	     14.29498659	      0.00000000	     -0.00122783	      0.45427020	     -0.88988702	     -0.00228021	      0.60417937	     -0.94550496	     -0.00201721	      1.10451256	     -0.94550496	     -0.00140329	      1.10451256	     -0.77865114	     -0.00114017	      0.92634779	     -0.72303321	     -0.00070158	      0.70366454	     -0.66741527	     -0.00877030	      5.13879536	     -4.94928465	      0.00000000	      0.00000000	     -0.00000000	      0.00000000	      0.00000000	    -12.80161570	    -12.08246012	      7.56110197	     24.07692614	     45.37481819	      0.00000000	      5.00000014	     19.45640907	    -11.85330983	    137.08785401	      0.60612837	      8.57689817	      0.00000000	      5.00000014
     13.80000000	      6.24113008	      4.96065916	   -172.24724048	      0.62469081	      0.89168038	      0.77795458	     37.50412742	     -4.30998601	    -16.41125395	     33.11267033	      0.57792512	      7.70926299	     -5.13967867	      0.00000000	      1.79435687	     -3.98015748	    -18.28576366	     13.86969245	      0.24207180	     28.74561926	     14.71525972	      0.00000000	      0.00044981	      0.54732220	     -1.16441594	      0.00083533	      0.72793852	     -1.23719193	      0.00073899	      1.33075919	     -1.23719193	      0.00051408	      1.33075919	     -1.01886395	      0.00041769	      1.11609943	     -0.94608795	      0.00025702	      0.84780209	     -0.87331195	      0.00321292	      6.19141818	     -6.47613212	      0.00000000	      0.00000000	     -0.00000000	      0.00000000	      0.00000000	    -15.05488607	    -12.74000795	      6.56984784	     24.28447119	     45.27299909	      0.00000000	      5.00000014	     22.28935151	    -11.52995373	    142.99246953	      0.51832316	      6.55097851	      0.00000000	      5.00000014
     13.83333333	      6.25467199	      5.53188413	   -171.07187146	      0.58660695	      0.88678118	      0.78054841	     36.58494311	     -4.17764804	    -22.31345066	     24.32494274	      0.42455034	      5.52067507	      0.83208506	      0.00000000	     -0.37944887	     -4.86120501	    -17.39216406	     14.63637712	      0.25545297	     30.28073696	     14.77922024	      0.00000000	      0.00297770	      0.60686493	     -1.40745087	      0.00552989	      0.80713036	     -1.49541655	      0.00489207	      1.47553140	     -1.49541655	      0.00340322	      1.47553140	     -1.23151951	      0.00276510	      1.23751897	     -1.14355383	      0.00170146	      0.94003378	     -1.05558815	      0.02126944	      6.86497750	     -7.82781949	      0.00000000	      0.00000000	     -0.00000000	      0.00000000	      0.00000000	    -17.08122327	    -13.27904950	      6.84225472	     24.61087529	     45.40113343	      0.00000000	      5.00000014	     24.42996118	    -11.37643082	    145.84514543	      0.48225777	      6.01482624	      0.00000000	      5.00000014
